<svg width="1584" height="396" viewBox="0 0 1584 396" fill="none" xmlns="http://www.w3.org/2000/svg">
  <defs>
    <linearGradient id="bg-gradient" x1="0%" y1="0%" x2="100%" y2="100%">
      <stop offset="0%" style="stop-color:#2D1B69;stop-opacity:1" />
      <stop offset="30%" style="stop-color:#1E0B40;stop-opacity:1" />
      <stop offset="70%" style="stop-color:#2D1B69;stop-opacity:1" />
      <stop offset="100%" style="stop-color:#1E0B40;stop-opacity:1" />
    </linearGradient>
    
    <linearGradient id="accent-gradient" x1="0%" y1="0%" x2="100%" y2="0%">
      <stop offset="0%" style="stop-color:#FF5BA8;stop-opacity:1" />
      <stop offset="100%" style="stop-color:#7B38FB;stop-opacity:1" />
    </linearGradient>
    
    <linearGradient id="text-gradient" x1="0%" y1="0%" x2="100%" y2="0%">
      <stop offset="0%" style="stop-color:#7B38FB;stop-opacity:1" />
      <stop offset="50%" style="stop-color:#2D81FF;stop-opacity:1" />
      <stop offset="100%" style="stop-color:#FF5BA8;stop-opacity:1" />
    </linearGradient>
  </defs>
  
  <!-- Main background -->
  <rect width="1584" height="396" fill="url(#bg-gradient)"/>
  
  <!-- Background pattern -->
  <pattern id="dots" patternUnits="userSpaceOnUse" width="60" height="60">
    <circle cx="30" cy="30" r="1.5" fill="white" fill-opacity="0.04"/>
  </pattern>
  <rect width="1584" height="396" fill="url(#dots)"/>
  
  <!-- Background glow effects -->
  <circle cx="300" cy="100" r="120" fill="#7B38FB" fill-opacity="0.08" filter="blur(60px)"/>
  <circle cx="1300" cy="300" r="100" fill="#2D81FF" fill-opacity="0.08" filter="blur(50px)"/>
  <circle cx="800" cy="80" r="80" fill="#FF5BA8" fill-opacity="0.06" filter="blur(40px)"/>
  <circle cx="1400" cy="150" r="90" fill="#50E3C2" fill-opacity="0.05" filter="blur(45px)"/>
  
  <!-- Decorative particles -->
  <circle cx="200" cy="150" r="3" fill="#7B38FB" fill-opacity="0.6"/>
  <circle cx="1400" cy="100" r="2" fill="#2D81FF" fill-opacity="0.5"/>
  <circle cx="400" cy="320" r="2.5" fill="#FF5BA8" fill-opacity="0.6"/>
  <circle cx="1200" cy="250" r="2" fill="#50E3C2" fill-opacity="0.5"/>
  <circle cx="600" cy="60" r="1.5" fill="#FF9D4A" fill-opacity="0.7"/>
  <circle cx="1000" cy="340" r="2" fill="#7B38FB" fill-opacity="0.4"/>
  <circle cx="500" cy="250" r="1.8" fill="#2D81FF" fill-opacity="0.5"/>
  <circle cx="900" cy="150" r="2.2" fill="#FF5BA8" fill-opacity="0.4"/>
  <circle cx="150" cy="300" r="1.5" fill="#50E3C2" fill-opacity="0.6"/>
  <circle cx="1450" cy="250" r="1.8" fill="#FF9D4A" fill-opacity="0.5"/>
  
  <!-- Additional subtle geometric elements -->
  <rect x="100" y="50" width="1" height="30" fill="#7B38FB" fill-opacity="0.3" transform="rotate(45 100 50)"/>
  <rect x="1400" y="320" width="1" height="25" fill="#2D81FF" fill-opacity="0.4" transform="rotate(-30 1400 320)"/>
  <rect x="700" y="40" width="1" height="20" fill="#FF5BA8" fill-opacity="0.3" transform="rotate(60 700 40)"/>
  
  <!-- Accent lines -->
  <rect x="0" y="390" width="1584" height="6" fill="url(#accent-gradient)" opacity="0.6"/>
  <rect x="0" y="0" width="1584" height="2" fill="url(#text-gradient)" opacity="0.4"/>
  
  <!-- Subtle flowing lines -->
  <path d="M0 200 Q400 180 800 200 T1584 200" stroke="url(#text-gradient)" stroke-width="0.5" fill="none" opacity="0.2"/>
  <path d="M0 250 Q500 230 1000 250 T1584 250" stroke="url(#accent-gradient)" stroke-width="0.3" fill="none" opacity="0.15"/>
</svg>