<svg width="32" height="32" viewBox="0 0 32 32" fill="none" xmlns="http://www.w3.org/2000/svg">
  <defs>
    <!-- Background gradient -->
    <radialGradient id="bg-gradient" cx="50%" cy="50%" r="70%">
      <stop offset="0%" style="stop-color:#2D1B69;stop-opacity:1" />
      <stop offset="100%" style="stop-color:#1E0B40;stop-opacity:1" />
    </radialGradient>
    
    <!-- Rocket body gradients -->
    <linearGradient id="rocket-left" x1="0%" y1="0%" x2="100%" y2="100%">
      <stop offset="0%" style="stop-color:#1A5BB9;stop-opacity:1" />
      <stop offset="100%" style="stop-color:#3D93FF;stop-opacity:1" />
    </linearGradient>
    
    <linearGradient id="rocket-right" x1="0%" y1="0%" x2="100%" y2="100%">
      <stop offset="0%" style="stop-color:#3D93FF;stop-opacity:1" />
      <stop offset="100%" style="stop-color:#2D81FF;stop-opacity:1" />
    </linearGradient>
    
    <!-- Window gradient -->
    <linearGradient id="window-gradient" x1="0%" y1="0%" x2="100%" y2="100%">
      <stop offset="0%" style="stop-color:#E0F7FF;stop-opacity:1" />
      <stop offset="50%" style="stop-color:#C7EEFF;stop-opacity:1" />
      <stop offset="100%" style="stop-color:#A8DFFF;stop-opacity:1" />
    </linearGradient>
  </defs>
  
  <!-- Background -->
  <circle cx="16" cy="16" r="16" fill="url(#bg-gradient)"/>
  
  <!-- Background particles -->
  <circle cx="8" cy="8" r="1" fill="white" opacity="0.6"/>
  <circle cx="25" cy="6" r="0.8" fill="#FF5BA8" opacity="0.5"/>
  <circle cx="6" cy="24" r="0.9" fill="#50E3C2" opacity="0.4"/>
  <circle cx="26" cy="26" r="0.7" fill="#FF9D4A" opacity="0.6"/>
  
  <!-- Main rocket body with 3D effect -->
  <!-- Left side (darker) -->
  <path d="M16 6C16 6 12.5 9 12.5 16C12.5 23 16 26 16 26Z" fill="url(#rocket-left)"/>
  
  <!-- Right side (brighter) -->
  <path d="M16 6C16 6 19.5 9 19.5 16C19.5 23 16 26 16 26Z" fill="url(#rocket-right)"/>
  
  <!-- Rocket window -->
  <ellipse cx="16" cy="16" rx="2.5" ry="3.5" fill="url(#window-gradient)"/>
  <ellipse cx="15" cy="14.5" rx="1" ry="1.5" fill="white" fill-opacity="0.4"/>
  
  <!-- Side fins -->
  <path d="M12.5 14C12.5 14 10 15 10 16C10 17 12.5 18 12.5 18" fill="#FF5BA8" stroke="white" stroke-width="0.5"/>
  <path d="M19.5 14C19.5 14 22 15 22 16C22 17 19.5 18 19.5 18" fill="#FF5BA8" stroke="white" stroke-width="0.5"/>
  
  <!-- Rocket nose -->
  <path d="M16 6C16 6 14 8 14 12C14 14 16 15 16 15C16 15 18 14 18 12C18 8 16 6 16 6Z" fill="#3D93FF"/>
  
  <!-- Flames -->
  <path d="M14.5 23C14.5 23 14 27 16 27C18 27 17.5 23 17.5 23H14.5Z" fill="#FF5BA8"/>
  <path d="M14 24.5C14 24.5 13.5 28.5 16 28.5C18.5 28.5 18 24.5 18 24.5H14Z" fill="#FF9D4A"/>
  
  <!-- Trail bubbles -->
  <circle cx="23" cy="18" r="1.2" fill="#FF5BA8" opacity="0.6"/>
  <circle cx="22" cy="22" r="0.9" fill="#50E3C2" opacity="0.5"/>
  <circle cx="24.5" cy="22" r="0.7" fill="#7B38FB" opacity="0.6"/>
</svg>